<!-- Generator: Adobe Illustrator 22.1.0, SVG Export Plug-In  -->
<svg version="1.1"
	 xmlns="http://www.w3.org/2000/svg" xmlns:xlink="http://www.w3.org/1999/xlink" xmlns:a="http://ns.adobe.com/AdobeSVGViewerExtensions/3.0/"
	 x="0px" y="0px" width="67px" height="120.1px" viewBox="0 0 67 120.1" style="enable-background:new 0 0 67 120.1;"
	 xml:space="preserve">
<defs>
</defs>
<path d="M4.4,17.7c-1.3,4.3-1.5,8.6-1.4,13c0.1,4.9,1.6,9.6,4.5,13.6c1.9,2.5,4.5,4.2,7.8,4.6c3.8,0.5,7.1-0.6,10.1-2.8
	c4.4-3.2,7.2-7.5,9.2-12.4c1.4-3.6,2.4-7.2,2.7-11.1c0.3-4.5-0.1-8.9-1.7-13.2C32.9,1.7,24.9-2.2,17.5,1.3c-4.3,2-7.4,5.3-9.7,9.3
	C6.5,12.8,5.5,15.3,4.4,17.7z"/>
<path d="M31.6,58.2c-0.2,2.4-0.7,5.2-0.7,8c0,4,1.1,7.7,3.8,10.8c2.9,3.3,6.7,4.4,11.1,4c2.7-0.3,5.1-1.2,7.3-2.6
	c2.2-1.4,4.3-3.3,6.1-5.2c1.7-1.9,3.3-4.1,4.4-6.4c1.2-2.5,2.1-5.3,2.8-8c0.4-1.6,0.4-3.3,0.5-5c0.3-3.4-0.6-6.7-2.4-9.6
	c-2.3-3.7-5.9-5.4-10.1-5.6c-5.7-0.2-10.4,2-14.3,6c-1.9,2-3.7,4.1-5.2,6.4C33.6,53,32.9,55.4,31.6,58.2z"/>
<path d="M0.1,56.9C0.1,56.9,0.1,56.9,0.1,56.9c14.5,8.4,25.1,22.2,29.5,38.4c1.4,5.4,2.2,10.9,2.2,16.4c0,0,0,0,0,0
	C22,117.3,11,120.1,0,120.1V57v63.1"/>
<path d="M0.1,120.1"/>
</svg>
