<!-- Generator: Adobe Illustrator 22.1.0, SVG Export Plug-In  -->
<svg version="1.1"
	 xmlns="http://www.w3.org/2000/svg" xmlns:xlink="http://www.w3.org/1999/xlink" xmlns:a="http://ns.adobe.com/AdobeSVGViewerExtensions/3.0/"
	 x="0px" y="0px" width="297.3px" height="330.5px" viewBox="0 0 297.3 330.5" style="enable-background:new 0 0 297.3 330.5;"
	 xml:space="preserve">
<defs>
</defs>
<g>
	<g>
		<path d="M260.6,98.3c1.1,4.8,2.1,9.5,3.2,14.3c0,0.2,0.1,0.4,0.2,0.7c-0.1,0.5,0,0.9,0.3,1.3c0.1,1.3,0.3,2.5,0.7,3.7
			c0,0-0.1,0.1-0.1,0.1c0,0.1,0.1,0.2,0.1,0.2c0,0.2,0,0.3,0,0.5c-0.2,0.1-0.3,0.2-0.4,0.4c-0.6,0.3-1,0.7-1.3,1.2
			c-0.3,0.1-0.6,0.2-0.7,0.6c0,0-0.1,0.1-0.1,0.1c-0.2,0-0.3,0.1-0.3,0.3c0,0-0.1,0-0.1,0c-0.3,0.1-0.6,0.2-0.7,0.6c0,0,0,0,0,0
			c-0.2,0-0.4,0.1-0.4,0.3c-0.1,0-0.2,0-0.2,0.2c-0.2,0-0.3,0-0.3,0.2c0,0,0,0,0,0c-0.4,0.1-0.6,0.3-0.8,0.6c-0.1,0-0.2,0.1-0.3,0.2
			c-0.2,0-0.3,0-0.3,0.2c-1.6,1-3.2,2.1-4.9,3c-3.9,2.1-8.1,3.8-12.5,4.9c-5.9,1.5-11.8,2-17.8,1.6c-0.1,0-0.2,0-0.3,0
			c-2.1-0.2-1.9,0.1-2.5-1.9c-1.9-6-3.8-11.9-5.7-17.9c-0.1-0.3-0.2-0.5-0.3-0.8c-0.5,0.1-0.5,0.5-0.6,0.8c-0.5,1.7-0.7,3.4-0.6,5.2
			c0.1,2.1,0.1,4.2,0.6,6.2c-0.1,0.2-0.1,0.5,0.1,0.7c-0.1,1,0.1,1.9,0.3,2.8c-0.1,0.2-0.1,0.5,0,0.7c0,0.8,0,1.6,0.3,2.4
			c-0.1,0.5-0.1,0.9,0.1,1.4c0,1.7,0,3.5,0.3,5.2c-0.1,0.9-0.1,1.9,0.1,2.8c-0.1,1.9-0.1,3.7,0,5.6c-0.2,0.3-0.3,0.7-0.1,1.1
			c-0.3,1.4-0.3,2.8-0.3,4.2c-0.2,0.6-0.2,1.2-0.1,1.8c-0.2,0.8-0.2,1.6-0.2,2.4c0,1.9,0,3.8,0,5.6c-0.2,0.6-0.2,1.2,0,1.7
			c-0.1,1-0.1,2.1,0,3.1c-0.1,0.7-0.1,1.4,0,2.1c-0.1,2.8-0.1,5.6,0.2,8.4c-0.2,0.8-0.1,1.6,0.1,2.5c0,1.8,0,3.5,0.3,5.2
			c-0.1,0.4-0.1,0.7,0.1,1c0,1.3,0,2.6,0.3,3.8c-0.1,0.5-0.1,0.9,0.1,1.4c0,0.8-0.1,1.6,0.2,2.4c-0.1,0.5,0,1,0.2,1.4
			c-0.1,0.9,0,1.9,0.3,2.8c-0.1,0.4-0.1,0.7,0.1,1.1c-0.1,0.9,0,1.9,0.3,2.8c-0.1,0.2-0.1,0.5,0.1,0.7c0,0.7,0,1.4,0.2,2.1
			c-0.1,0.4-0.1,0.7,0.1,1.1c-0.1,0.7,0,1.4,0.3,2.1c-0.1,0.2-0.1,0.5,0.1,0.7c0,0.7,0,1.4,0.3,2.1c-0.1,0.3-0.1,0.5,0.1,0.7
			c0,0.7,0,1.4,0.3,2.1c-0.1,0.3-0.1,0.5,0.1,0.7c0.4,2.7,0.7,5.4,1.1,8.1c0.4,2.5,0.8,5,1.2,7.6c0.3,1.7,0.2,3.5-0.3,5.2
			c-0.3,0.2-0.4,0.5-0.4,0.8c-0.2,0.1-0.3,0.3-0.3,0.6c-0.3,0.1-0.4,0.3-0.4,0.5c-0.3,0.2-0.5,0.4-0.6,0.7c-0.2,0-0.3,0.1-0.3,0.3
			c-0.4,0.1-0.6,0.4-0.8,0.7c-0.3,0-0.5,0.1-0.6,0.4c0,0-0.1,0.1-0.1,0.1c-0.2,0-0.3,0.1-0.3,0.2c-0.3,0-0.5,0.2-0.7,0.4
			c-0.2,0-0.3,0.1-0.4,0.2c-0.3,0-0.5,0.1-0.7,0.4c-0.2,0-0.4,0.1-0.5,0.3l-0.1,0l0,0.1c-0.3,0-0.6,0-0.8,0.3c-0.1,0-0.2,0-0.3,0.1
			c-0.3-0.1-0.6,0.1-0.8,0.3c-0.1,0.1-0.2,0.1-0.3,0.2c-0.4,0-0.8,0.1-1,0.4c0,0,0,0,0,0c-0.3,0-0.5,0-0.7,0.3c0,0,0,0,0,0
			c-0.4,0-0.7,0-1,0.4c0,0-0.1,0-0.1,0c-0.6,0.1-1.1,0.3-1.6,0.7l-0.1,0c0,0-0.1,0.1-0.1,0.1c-0.3-0.1-0.5,0-0.6,0.3
			c0,0-0.1,0.1-0.1,0.1c-0.3,0-0.5,0-0.7,0.3c0,0,0,0,0,0c-0.4,0-0.7,0.1-1,0.3c0,0-0.1,0-0.1,0c-0.4,0-0.7,0-0.9,0.3
			c0,0-0.1,0-0.1,0c-0.4-0.1-0.7,0-0.9,0.3l-0.1,0c0,0-0.1,0.1-0.1,0.1c-0.4-0.1-0.7,0-0.9,0.3c-0.2,0-0.3,0.1-0.5,0.1
			c-0.3-0.1-0.5,0-0.6,0.2c-0.1,0-0.3,0.1-0.4,0.1c-0.3-0.1-0.5,0-0.7,0.2c-1.7,0.4-3.5,0.8-5.2,1.1c-3.4,0.7-6.8,1.3-10.2,1.7
			c-1.1,0.1-2.2,0.3-3.2,0.4c-0.3,0-0.5,0.2-0.8,0.3c-1.9,0.2-3.7,0.3-5.6,0.5c-6.5,0.7-13,1.1-19.5,1.4c-4,0.2-8,0.2-12,0.5
			c-9.3,0.5-18.6-0.4-27.8-1.8c-2-0.3-4-0.8-6-0.9c-0.2-0.2-0.5-0.2-0.7-0.2c-1.4-0.4-2.7-0.8-4.2-0.8c-0.3-0.2-0.7-0.3-1.1-0.3
			c-1.2-0.5-2.5-0.7-3.8-0.8c-0.3-0.2-0.6-0.2-0.9-0.2c-0.4-0.3-0.8-0.4-1.2-0.3l-0.1-0.1c0,0-0.1,0-0.1,0c-0.3-0.2-0.5-0.3-0.9-0.2
			c-0.2,0-0.4-0.1-0.5-0.1c-1.6-0.7-3.3-1.1-5.1-1.4l-0.1-0.1c0,0-0.1,0-0.1,0c-0.7-0.5-1.5-0.6-2.3-0.7c0,0-0.1,0-0.1,0
			c-0.7-0.5-1.5-0.7-2.3-0.7c0,0,0,0,0,0c-0.3-0.3-0.6-0.4-1-0.3c0,0-0.1,0-0.1,0c-0.3-0.3-0.6-0.4-1-0.3c0,0-0.1,0-0.1,0
			c-0.2-0.3-0.6-0.4-1-0.4c0,0,0,0,0,0c-0.2-0.3-0.6-0.4-1-0.4c0,0,0,0,0,0c-0.1-0.3-0.4-0.3-0.7-0.3c0,0,0,0,0,0
			c-0.2-0.3-0.4-0.3-0.7-0.3l0-0.1c0,0-0.1,0-0.1,0c-0.3-0.4-0.7-0.5-1.2-0.6c-0.1-0.2-0.3-0.3-0.5-0.3c0-0.2-0.1-0.2-0.3-0.2
			c-0.1-0.1-0.2-0.1-0.3-0.2c-0.1-0.2-0.2-0.3-0.4-0.3c-0.1-0.1-0.2-0.2-0.3-0.3c0-0.2-0.1-0.4-0.3-0.4c-0.2-0.4-0.4-0.7-0.5-1.1
			c-0.3-0.7-0.5-1.4-0.4-2.2c0.6-9.7,1.2-19.5,1.8-29.2c0.4-6.1,0.7-12.2,1.1-18.3c0.2-2.7,0.4-5.3,0.5-8c0.3-5,0.5-10,0.7-15
			c0.4-9.5,0.9-18.9,1.2-28.4c0.1-3.2,0.2-6.4,0-9.6c0-0.6-0.1-1.3-0.1-1.9c-0.6-0.1-0.6,0.4-0.7,0.6c-0.9,3.2-2.1,6.3-3.2,9.4
			c-0.2,0.7-0.6,1-1.3,1.1c-0.9,0.1-1.8,0.2-2.8,0.2c-6.8,0.2-13.3-1-19.7-3.2c-4.3-1.4-8.4-3.4-12.3-5.7c-3.1-1.9-5.9-4.2-8-7.2
			c0-0.2-0.1-0.4-0.3-0.5c0-0.1,0-0.2-0.1-0.2c0-0.2-0.1-0.4-0.3-0.6c-0.1-0.5-0.3-1-0.4-1.5c0.1-0.4,0.1-0.7,0-1.1
			c0.1-0.7,0.2-1.3,0.4-2c0.1-0.1,0.2-0.2,0.1-0.4c0.3-0.7,0.5-1.5,0.6-2.3c0.2-0.1,0.2-0.3,0.1-0.5c0.2-0.5,0.4-0.9,0.4-1.4
			c0.2-0.2,0.3-0.4,0.2-0.7c0.2-0.2,0.2-0.4,0.2-0.7c0.5-1.4,1-2.7,1.2-4.2c0.3-0.6,0.5-1.1,0.5-1.7c0.4-0.5,0.5-1.1,0.5-1.7
			c0.3-0.5,0.5-1.1,0.5-1.7c0.4-0.5,0.5-1.1,0.6-1.7c0.2-0.3,0.3-0.6,0.3-1c0.4-0.4,0.4-1,0.5-1.5c0.2-0.2,0.2-0.4,0.2-0.7
			c0.4-0.5,0.5-1.1,0.5-1.8c0.1-0.2,0.1-0.4,0.2-0.7c0.2-0.1,0.2-0.2,0.2-0.4c0.2-0.3,0.3-0.6,0.2-0.9c0.2-0.1,0.2-0.3,0.2-0.5
			c0.1-0.3,0.1-0.5,0.2-0.8c0.3-0.4,0.4-0.8,0.5-1.3c0.2-0.5,0.5-1.1,0.5-1.7c0.2-0.1,0.2-0.2,0.2-0.4c0.2-0.3,0.2-0.6,0.2-0.9
			c0.2-0.1,0.2-0.3,0.2-0.5c0.4-0.9,0.7-1.9,0.9-2.9c0.4-0.4,0.4-0.9,0.6-1.4c0.3-0.8,0.6-1.6,0.8-2.4c0.7-2.2,1.4-4.4,2.1-6.5
			c0.1-0.2,0.1-0.3,0.2-0.5c0.2-0.3,0.4-0.6,0.3-0.9c0-0.1,0.1-0.2,0.1-0.3c0.1-0.1,0.2-0.2,0.1-0.4c0.1-0.2,0.1-0.3,0.2-0.5
			c0.3-0.3,0.4-0.6,0.3-0.9c0.1-0.1,0.1-0.2,0.1-0.3c0.2-0.1,0.2-0.2,0.2-0.4c0-0.1,0.1-0.3,0.1-0.4c0.2-0.2,0.3-0.4,0.2-0.6
			c0-0.1,0.1-0.3,0.1-0.4c0.3-0.3,0.4-0.6,0.4-1c0.1-0.1,0.1-0.1,0.1-0.2c0.2-0.1,0.3-0.3,0.2-0.5c0.2-0.5,0.5-1,0.5-1.5
			c0.2-0.1,0.3-0.3,0.2-0.6c0.1-0.1,0.1-0.1,0.1-0.2c0.2-0.1,0.2-0.3,0.2-0.4c0.2-0.4,0.3-0.9,0.5-1.3c0,0,0,0.1,0,0.1
			c0.2-0.4,0.4-0.7,0.4-1.1c0.2-0.1,0.2-0.2,0.2-0.4c0.3-0.5,0.5-1,0.6-1.6c0.3-0.2,0.4-0.5,0.4-0.9c0.4-0.6,0.6-1.2,0.7-1.9
			c0.3-0.2,0.4-0.6,0.4-0.9c0-0.1,0.1-0.3,0.1-0.4c0.4-0.4,0.5-0.8,0.5-1.3c0.2-0.4,0.4-0.8,0.6-1.2c1.3-3,2.6-6,4.1-9
			c0.4-0.8,0.8-1.7,1.1-2.5c0.2-0.1,0.3-0.3,0.3-0.5c0,0,0,0,0,0c0.2-0.1,0.2-0.2,0.2-0.3c0.1-0.1,0.1-0.2,0.2-0.3
			c0.3-0.2,0.5-0.4,0.5-0.8c0.2-0.2,0.4-0.5,0.5-0.8c0.2,0,0.2-0.1,0.2-0.2c0.1-0.1,0.2-0.2,0.2-0.3c0.2,0,0.3-0.2,0.3-0.4
			c0.1-0.1,0.2-0.3,0.3-0.4c0.2,0,0.3-0.1,0.2-0.3c0.9-0.8,1.8-1.6,2.6-2.5c0.2,0,0.4-0.1,0.4-0.3c0.1-0.1,0.3-0.1,0.4-0.2
			c0,0-0.1,0-0.1,0s0,0.1,0,0.1c0.1-0.2,0.2-0.3,0.3-0.5c0.2,0,0.3-0.1,0.4-0.3c0.6-0.3,1-0.7,1.4-1.2c0.2,0,0.2,0,0.3-0.2
			c0,0,0.1-0.1,0.1-0.1c0.2,0,0.3-0.1,0.3-0.3c0.1-0.1,0.3-0.3,0.4-0.4c0.4-0.1,0.7-0.3,0.8-0.7c0.1,0,0.2-0.1,0.2-0.2
			c0,0,0.1,0,0.1,0l0-0.1c0.1,0,0.2,0,0.2-0.1c0.3,0,0.5-0.1,0.7-0.3c0.3-0.3,0.6-0.6,0.9-1l0.1,0c0,0,0-0.1,0-0.1
			c0.2,0,0.3-0.1,0.3-0.2c0,0,0.1-0.1,0.1-0.1c0.2,0,0.4-0.1,0.4-0.3c0.1,0,0.2-0.1,0.2-0.2c0,0,0.1,0,0.1,0l0-0.1
			c0.1,0,0.1,0,0.2-0.1c0.2,0,0.3-0.1,0.4-0.3c0.5-0.3,1.1-0.6,1.5-1c0,0,0,0.1,0,0.1l0-0.1c0.2,0,0.4-0.2,0.5-0.4
			c0.3,0,0.4-0.1,0.5-0.3c0.2-0.1,0.4-0.2,0.6-0.3c0,0-0.1,0-0.1,0c0.2-0.2,0.4-0.4,0.6-0.5c0.2,0,0.4-0.1,0.5-0.3l0.1,0
			c0,0,0.1-0.1,0.1-0.1c0.4-0.1,0.9-0.2,1.3-0.5c0,0,0.1,0,0.1,0c0.4,0.1,0.8,0.1,1.1-0.4c0,0,0,0,0,0c0.4,0,0.8,0,1-0.4
			c0,0,0,0,0,0c0.4,0.1,0.7,0,0.9-0.3l0.1,0c0,0,0.1-0.1,0.1-0.1c0.3,0.1,0.5,0,0.6-0.3c0,0,0.1-0.1,0.1-0.1c0.3,0,0.6-0.1,0.8-0.3
			c0.5,0,0.9-0.2,1.3-0.4c0.2,0.1,0.4,0,0.5-0.3c0.4-0.2,0.7-0.3,1.1-0.5c0.4,0,0.8-0.1,1-0.5c1.3-0.1,2.4-0.9,3.6-1.4
			c0.6-0.3,1.2-0.6,1.8-0.9c1.1-0.1,2-0.6,2.7-1.3c0.1-0.1,0.3-0.1,0.4-0.2c1.3-0.6,2.6-1.2,3.9-1.9c0.8-0.4,1.7-0.8,2.4-1.4
			c0,0,0.1,0,0.1,0c0.3,0,0.5-0.1,0.6-0.3l0.1,0c0,0,0-0.1,0-0.1c0.3,0,0.4-0.1,0.5-0.3l0.1,0c0,0,0.1-0.1,0.1-0.1
			c0.2,0.1,0.4-0.1,0.5-0.3c0.1,0,0.2,0,0.2-0.1c0.2,0.1,0.4,0,0.5-0.3c0.1,0,0.2,0,0.3-0.2c0,0,0.2,0,0.2,0s0.1-0.1,0.1-0.1
			c0.2-0.1,0.3-0.2,0.5-0.3c0,0,0.1,0,0.1,0s0.1-0.1,0.1-0.1c0.2-0.1,0.4-0.2,0.5-0.3c0,0,0.1,0,0.1,0l0-0.1l0.1,0c0,0,0-0.1,0-0.1
			c0.4-0.1,0.8-0.3,1-0.6c0.2-0.1,0.3-0.2,0.5-0.3c0,0,0.1,0,0.1,0l0-0.1c0.2-0.1,0.4-0.2,0.6-0.3c0,0-0.1,0-0.1,0
			c0.4-0.2,0.7-0.5,1.1-0.7c0,0,0.1,0,0.1,0l0-0.1c0.4-0.1,0.7-0.3,0.9-0.6c0,0,0.1,0,0.1,0l0.1-0.1l0.1,0c0,0,0-0.1,0-0.1
			c0.2,0,0.4-0.1,0.4-0.3c0.1-0.1,0.2-0.1,0.3-0.2c0.3-0.1,0.6-0.2,0.8-0.5c0.1,0,0.2,0,0.2-0.1c0.2,0.1,0.2,0,0.2-0.2
			c0.2,0,0.4-0.1,0.5-0.4c0.3,0,0.4-0.1,0.5-0.4l0.1,0c0,0,0-0.1,0-0.1c0.2,0,0.3-0.1,0.3-0.2c0.2,0,0.3-0.1,0.4-0.3
			c0.3,0,0.4-0.2,0.5-0.4l0.1,0c0,0,0-0.1,0-0.1c0.2,0,0.3,0,0.3-0.2c0.2,0,0.4-0.1,0.4-0.3c0.2,0,0.3-0.1,0.4-0.3
			c0.4-0.2,0.8-0.5,1-0.9c0.2,0,0.5,0,0.7,0c0,0.1,0.1,0.2,0.2,0.1c0.1,0.2,0.2,0.3,0.5,0.3c0,0.1,0.1,0.1,0.2,0.1
			c0.2,0.3,0.5,0.4,0.8,0.4c0,0,0.1,0,0.1,0c0.6,0.5,1.3,0.8,2,0.9c0.1,0.1,0.1,0.1,0.2,0.1c0.2,0.3,0.5,0.4,0.8,0.3
			c0.1,0.1,0.2,0.2,0.3,0.1c1.2,0.7,2.5,1.1,3.9,1.3c2.4,0.9,4.9,1.3,7.5,1.7c9.6,1.5,19.1,0.7,28.5-1.7c1.1-0.3,2.2-0.5,3.1-1
			c0.3,0.1,0.6,0,0.8-0.3c0.1,0,0.2,0,0.2-0.1c0.4,0.1,0.7-0.1,0.9-0.3l0.1,0c0,0,0.1-0.1,0.1-0.1c0.3,0.1,0.6-0.1,0.8-0.3
			c0.1,0,0.2,0,0.2-0.1c0.3,0.1,0.4,0,0.6-0.3l0.1,0c0,0,0-0.1,0-0.1c0.3,0.1,0.4-0.1,0.6-0.3c0,0,0.1-0.1,0.1-0.1
			c0.5,0,0.9-0.2,1.2-0.7l0.1,0c0,0,0-0.1,0-0.1c0.4-0.1,0.7-0.1,1.1,0l0,0.1c0,0,0.1,0,0.1,0c0.1,0.3,0.3,0.4,0.5,0.5
			c0.1,0.1,0.2,0.2,0.3,0.3c0,0,0,0.1,0,0.1s0-0.1,0-0.1c0.1,0.1,0.3,0.2,0.4,0.3c0,0.2,0.1,0.3,0.3,0.2c0,0,0.1,0.1,0.1,0.1
			c0.1,0.2,0.3,0.4,0.6,0.4c0,0,0,0,0,0c0.1,0.3,0.3,0.4,0.6,0.4c0,0,0,0,0,0c0,0.2,0.2,0.3,0.4,0.3c0,0,0.1,0,0.1,0
			c0.8,0.6,1.7,1.2,2.7,1.4c0,0,0.1,0,0.1,0c0.1,0.2,0.4,0.3,0.6,0.3c0.2,0.2,0.5,0.4,0.8,0.4c0.1,0.2,0.3,0.3,0.6,0.3
			c0,0.1,0.1,0.1,0.2,0.1c0.1,0.2,0.2,0.3,0.5,0.2c0.4,0.2,0.8,0.3,1.3,0.5c0.1,0.2,0.3,0.2,0.5,0.2c1.4,0.7,2.8,1.3,4.3,1.6
			c0.2,0.2,0.3,0.3,0.6,0.2c0,0.1,0.1,0.1,0.2,0.1c0.2,0.3,0.5,0.4,0.8,0.3l0.1,0.1c0,0,0.1,0,0.1,0c0.1,0.2,0.3,0.3,0.5,0.2
			c0.2,0.1,0.4,0.1,0.5,0.2c0.5,0.4,1,0.6,1.6,0.6l0.1,0.1c0,0,0.1,0,0.1,0c0.2,0.2,0.5,0.4,0.9,0.3l0.1,0.1c0,0,0.1,0,0.1,0
			c0.8,0.5,1.7,0.8,2.6,1l0.1,0.1c0,0,0.1,0,0.1,0c0.8,0.5,1.7,0.9,2.6,1c0,0,0.1,0,0.1,0c1.2,0.7,2.4,1.1,3.7,1.4
			c0.2,0.2,0.4,0.3,0.7,0.3c0.1,0.1,0.2,0.2,0.3,0.1c0.2,0.1,0.4,0.2,0.6,0.3c0.2,0.2,0.5,0.4,0.9,0.3c0.3,0.2,0.5,0.4,0.9,0.4
			c0.1,0.2,0.3,0.3,0.5,0.2c0.1,0.1,0.1,0.1,0.3,0.1c0.1,0.2,0.2,0.2,0.4,0.1c0.2,0.1,0.4,0.2,0.6,0.2c0.2,0.1,0.4,0.2,0.6,0.2
			c0,0.1,0.1,0.1,0.2,0.1c0.1,0.2,0.3,0.3,0.5,0.2c0.1,0.1,0.2,0.1,0.3,0.1c0.1,0.2,0.2,0.2,0.4,0.2c0.2,0.1,0.4,0.2,0.5,0.2
			c0,0,0,0.1,0,0.1l0.1-0.1c0.2,0.1,0.4,0.2,0.6,0.3c0.1,0.2,0.3,0.3,0.6,0.3c0,0.1,0.1,0.1,0.2,0.1c0.1,0.2,0.3,0.3,0.5,0.2
			c0.1,0.1,0.1,0.1,0.2,0.1c0.1,0.2,0.2,0.3,0.4,0.2c0.1,0.1,0.1,0.2,0.3,0.1c0.1,0.2,0.2,0.3,0.4,0.2c0.1,0.1,0.3,0.1,0.4,0.2
			c1.4,0.9,2.9,1.7,4.5,2.4c0,0,0.1,0.1,0.1,0.1c0.1,0.2,0.3,0.3,0.6,0.3c0,0.1,0.1,0.1,0.2,0.1c0.1,0.2,0.3,0.3,0.5,0.3
			c0,0,0,0,0,0c0,0.2,0.1,0.3,0.3,0.2c0.1,0.1,0.2,0.1,0.3,0.2c0.1,0.3,0.4,0.4,0.7,0.4c0.1,0.1,0.2,0.2,0.4,0.2
			c0.1,0.2,0.2,0.3,0.4,0.2c0,0.1,0.1,0.1,0.2,0.1c0.1,0.2,0.3,0.3,0.5,0.3c0.2,0.1,0.4,0.3,0.6,0.4c0,0-0.1,0-0.1,0
			c0.2,0.1,0.4,0.2,0.6,0.3c0,0,0.1,0.1,0.1,0.1l0.1,0c0.1,0.1,0.2,0.2,0.2,0.3c0,0,0-0.1,0-0.1s-0.1,0-0.1,0
			c0.2,0.1,0.5,0.2,0.7,0.3c0,0,0,0.1,0,0.1l0.1,0c0,0.1,0.1,0.2,0.3,0.2c0.1,0.2,0.2,0.3,0.5,0.3l0,0.1c0,0,0.1,0,0.1,0
			c0,0,0.1,0.1,0.1,0.1l0.2,0c0,0.1,0.1,0.2,0.2,0.2c0,0,0,0.1,0,0.1s0-0.1,0-0.1c0.2,0.1,0.3,0.2,0.5,0.3c0,0.2,0.1,0.3,0.3,0.2
			l0,0.1c0,0,0.1,0,0.1,0c0,0,0,0.1,0,0.1l0.1,0c0.1,0.1,0.2,0.2,0.4,0.3c0,0.2,0.2,0.3,0.4,0.3c0,0,0.1,0,0.1,0
			c0,0.2,0.1,0.3,0.3,0.2l0,0.1c0,0,0.1,0,0.1,0c0,0,0,0.2,0,0.2l0.2,0c0.3,0.4,0.6,0.7,1.1,0.9c0,0.2,0.1,0.3,0.3,0.3
			c0.1,0.1,0.3,0.3,0.4,0.4c0,0.2,0.1,0.3,0.3,0.2l0,0.1c0,0,0.1,0,0.1,0c0,0.2,0.1,0.2,0.2,0.2c0.1,0.3,0.3,0.4,0.5,0.5
			c0,0,0,0.1,0,0.1s0.1,0,0.1,0c0.6,0.7,1.3,1.3,1.9,2c0,0,0,0.2,0,0.2l0.2,0c0,0.1,0.1,0.2,0.2,0.1c0,0.1,0,0.2,0.2,0.2
			c0,0.1,0,0.1,0.1,0.1c0,0.1,0.1,0.2,0.2,0.3c0,0,0.1,0.1,0.1,0.1c0,0.2,0.1,0.3,0.3,0.3c0,0,0,0.1,0,0.1c0,0.2,0.1,0.3,0.3,0.3
			c0.2,0.4,0.5,0.8,0.9,1.1c0,0.1,0,0.2,0.2,0.2c0,0,0.1,0.1,0.1,0.1c0,0.2,0.1,0.3,0.3,0.4c0,0,0,0,0,0c0,0.2,0.1,0.3,0.3,0.4
			c0,0,0,0,0,0c0,0.3,0.2,0.5,0.4,0.6c0,0,0,0.1,0,0.1c0,0.3,0.1,0.4,0.3,0.5c0.1,0.2,0.2,0.4,0.3,0.5c0.1,0.4,0.3,0.8,0.7,1.1
			c0.7,1.2,1.3,2.5,1.9,3.7c1.7,3,3.2,6.2,4.5,9.4c2.2,5.5,4,11.1,5.8,16.8"/>
	</g>
</g>
<g>
	<path d="M15.5,302.3h0.8V325h-0.8v-21.2l-0.1,0L0.8,325H0v-22.8h0.8v21.1l0.1,0L15.5,302.3z"/>
	<path d="M39.1,324.2H41v6.3h-0.9V325H21.5v5.5h-0.8V325h0v-0.8h0.5c1.5,0,2.8-1.3,3.9-3.8c1.1-2.5,1.8-6.1,2.1-10.9l0.6-7.3h11.3
		V324.2z M28,309.5c-0.3,3.7-0.8,6.9-1.5,9.4s-1.8,4.3-3,5.3h14.7v-21.1h-9.6L28,309.5z"/>
	<path d="M57,313.6H46.1v10.6h12.5v0.8H45.2v-22.8h13.4v0.8H46.1v9.6H57V313.6z"/>
	<path d="M74.9,318.2H63.8l-2.5,6.8h-0.9l8.5-22.8h1l8.5,22.8h-0.9L74.9,318.2z M64.1,317.4h10.5l-4.8-12.7l-0.4-1.3h-0.1l-0.4,1.3
		L64.1,317.4z"/>
	<path d="M98.4,302.3V325h-0.8v-21.9H86.5l-0.6,9.1c-0.3,4.9-0.7,8.3-1.5,10.1c-0.7,1.8-2.2,2.7-4.2,2.7h-0.5v-0.8h0.5
		c1.6,0,2.8-0.8,3.5-2.4c0.7-1.6,1.1-4.8,1.4-9.6l0.7-9.9H98.4z"/>
	<path d="M105.3,312.4h5.8c2.4,0,4.2,0.6,5.4,1.8c1.3,1.2,1.9,2.7,1.9,4.6c0,1.9-0.6,3.4-1.9,4.6c-1.3,1.2-3.1,1.7-5.4,1.7h-6.6
		v-22.8h0.8V312.4z M105.3,313.2v10.9h5.8c2.2,0,3.8-0.5,4.9-1.6c1.1-1,1.6-2.4,1.6-3.9c0-1.5-0.5-2.8-1.6-3.9
		c-1.1-1.1-2.7-1.6-4.9-1.6H105.3z"/>
	<path d="M139.9,325H139v-10.9h-14.5V325h-0.8v-22.8h0.8v11H139v-11h0.8V325z"/>
	<path d="M162.3,315.3c0,3.1-0.8,5.5-2.3,7.3c-1.5,1.8-3.6,2.7-6.3,2.7c-2.7,0-4.8-0.9-6.3-2.7c-1.5-1.8-2.3-4.2-2.3-7.3v-3.4
		c0-3.1,0.8-5.5,2.3-7.3s3.6-2.7,6.3-2.7c2.7,0,4.8,0.9,6.3,2.7s2.3,4.2,2.3,7.3V315.3z M161.4,311.9c0-2.8-0.7-5-2-6.7
		s-3.3-2.5-5.7-2.5c-2.5,0-4.4,0.8-5.7,2.5c-1.3,1.6-2,3.9-2,6.7v3.4c0,2.8,0.7,5,2,6.7c1.3,1.6,3.2,2.5,5.7,2.5
		c2.5,0,4.4-0.8,5.7-2.5c1.3-1.6,2-3.9,2-6.7V311.9z"/>
	<path d="M189.6,302.3V325h-0.8v-11.2c-1.1,0.3-2.2,0.5-3.2,0.7c-1.1,0.2-2.1,0.3-3.1,0.3c-2.5,0-4.4-0.5-5.6-1.6s-1.9-2.9-1.9-5.4
		v-5.5h0.8v5.5c0,2.1,0.6,3.7,1.7,4.7s2.8,1.5,5,1.5c1,0,2.1-0.1,3.1-0.2c1-0.2,2.1-0.4,3.2-0.7v-10.7H189.6z"/>
	<path d="M207.6,313.6h-10.9v10.6h12.5v0.8h-13.4v-22.8h13.4v0.8h-12.5v9.6h10.9V313.6z"/>
	<path d="M214.3,315.2v9.8h-0.8v-22.8h7.1c2.4,0,4.2,0.6,5.4,1.8c1.3,1.2,1.9,2.8,1.9,4.7c0,2-0.6,3.6-1.9,4.7s-3.1,1.8-5.4,1.8
		H214.3z M214.3,314.4h6.3c2.2,0,3.8-0.5,4.9-1.6c1.1-1.1,1.6-2.4,1.6-4c0-1.6-0.5-3-1.6-4.1c-1.1-1.1-2.7-1.6-4.9-1.6h-6.3V314.4z"
		/>
	<path d="M248.9,325H248v-10.9h-14.5V325h-0.8v-22.8h0.8v11H248v-11h0.8V325z"/>
	<path d="M255.9,312.4h5.8c2.4,0,4.2,0.6,5.4,1.8c1.3,1.2,1.9,2.7,1.9,4.6c0,1.9-0.6,3.4-1.9,4.6c-1.3,1.2-3.1,1.7-5.4,1.7H255
		v-22.8h0.8V312.4z M255.9,313.2v10.9h5.8c2.2,0,3.8-0.5,4.9-1.6c1.1-1,1.6-2.4,1.6-3.9c0-1.5-0.5-2.8-1.6-3.9
		c-1.1-1.1-2.7-1.6-4.9-1.6H255.9z M274.6,325h-0.8v-22.8h0.8V325z"/>
	<path d="M296.4,302.3h0.8V325h-0.8v-21.2l-0.1,0L281.7,325h-0.8v-22.8h0.8v21.1l0.1,0L296.4,302.3z M293.5,296.3L293.5,296.3
		c0.1,1.2-0.3,2.1-1.1,2.8c-0.8,0.7-1.8,1.1-3.2,1.1c-1.3,0-2.4-0.4-3.2-1.1c-0.8-0.7-1.1-1.6-1.1-2.7l0-0.1h0.7
		c0,0.9,0.3,1.6,0.8,2.2s1.5,0.8,2.7,0.8c1.2,0,2-0.3,2.6-0.8c0.6-0.6,0.9-1.3,0.9-2.2H293.5z"/>
</g>
</svg>
